<svg xmlns="http://www.w3.org/2000/svg" width="33" height="33" viewBox="0 0 33 33">
    <defs>
        <linearGradient id="a" x1="78.521%" x2="23.749%" y1="72.98%" y2="17.764%">
            <stop offset="0%" stop-color="#1F2225"/>
            <stop offset="100%" stop-color="#3A4249"/>
        </linearGradient>
    </defs>
    <path fill="url(#a)" fill-rule="evenodd" d="M32.75 9.269l22.627 22.627-.353.354.353.354L32.75 55.23 10.123 32.604l.354-.354-.354-.354L32.75 9.27zm4.668 16.59h-8.794l-1.603 4.083 5.903 14.918h.194l5.903-14.918-1.603-4.082zm-4.044 2.197c.542 0 1.06.234 1.412.585.377.374.588.866.588 1.427 0 .538-.211 1.03-.588 1.403h-.023c-.353.351-.847.585-1.389.585a2.038 2.038 0 0 1-1.411-.585 1.957 1.957 0 0 1-.589-1.403c0-.561.212-1.053.589-1.427.353-.35.87-.585 1.411-.585zm5.227-6.152h-10v2h10v-2z" transform="rotate(45 44.064 4.936)"/>
</svg>
