<?xml version="1.0" encoding="UTF-8"?>
<svg width="71px" height="64px" viewBox="0 0 71 64" version="1.1" xmlns="http://www.w3.org/2000/svg" xmlns:xlink="http://www.w3.org/1999/xlink">
    <!-- Generator: Sketch 59.1 (86144) - https://sketch.com -->
    <title>ICONS/GearIcon</title>
    <desc>Created with Sketch.</desc>
    <g id="MODELS" stroke="none" stroke-width="1" fill="none" fill-rule="evenodd" opacity="0.5">
        <g id="Models-Main" transform="translate(-388.000000, -1357.000000)" fill="#1F2225">
            <g id="Build" transform="translate(320.000000, 1354.000000)">
                <g id="ICONS/CompareIcon-LIGHT" transform="translate(69.000000, 0.000000)">
                    <g id="noun_comparison_2148635" transform="translate(-0.564516, 3.888889)">
                        <path d="M14.3181818,4.78787879 L14.3181818,39.8989899 L3.18181818,39.8989899 L3.18181818,4.78787879 L14.3181818,4.78787879 L14.3181818,4.78787879 Z M17.5,0 L0,0 L0,43.8888889 L17.5,43.8888889 L17.5,0 L17.5,0 Z" id="Shape" fill-rule="nonzero"></path>
                        <path d="M41.414956,4.78787879 L41.414956,39.8989899 L30.2785924,39.8989899 L30.2785924,4.78787879 L41.414956,4.78787879 L41.414956,4.78787879 Z M44.5967742,0 L27.0967742,0 L27.0967742,43.8888889 L44.5967742,43.8888889 L44.5967742,0 L44.5967742,0 Z" id="Shape" fill-rule="nonzero"></path>
                        <path d="M67.3826979,4.78787879 L67.3826979,39.8989899 L56.2463343,39.8989899 L56.2463343,4.78787879 L67.3826979,4.78787879 L67.3826979,4.78787879 Z M70.5645161,0 L53.0645161,0 L53.0645161,43.8888889 L70.5645161,43.8888889 L70.5645161,0 L70.5645161,0 Z" id="Shape" fill-rule="nonzero"></path>
                        <path d="M6.10111663,62.2222222 C5.69401365,62.2222222 5.28691067,62.0555556 4.96122829,61.7222222 L1.0530397,57.7222222 C0.401674938,57.0555556 0.401674938,56.0555556 1.0530397,55.3888889 C1.70440447,54.7222222 2.68145161,54.7222222 3.33281638,55.3888889 L6.10111663,58.2222222 L14.7316998,49.3888889 C15.3830645,48.7222222 16.3601117,48.7222222 17.0114764,49.3888889 C17.6628412,50.0555556 17.6628412,51.0555556 17.0114764,51.7222222 L7.24100496,61.7222222 C6.91532258,62.0555556 6.5082196,62.2222222 6.10111663,62.2222222 Z" id="Path" fill-rule="nonzero"></path>
                        <path d="M58.6011166,62.2222222 C58.1940136,62.2222222 57.7869107,62.0555556 57.4612283,61.7222222 L53.5530397,57.7222222 C52.9016749,57.0555556 52.9016749,56.0555556 53.5530397,55.3888889 C54.2044045,54.7222222 55.1814516,54.7222222 55.8328164,55.3888889 L58.6011166,58.2222222 L67.2316998,49.3888889 C67.8830645,48.7222222 68.8601117,48.7222222 69.5114764,49.3888889 C70.1628412,50.0555556 70.1628412,51.0555556 69.5114764,51.7222222 L59.741005,61.7222222 C59.4153226,62.0555556 59.0082196,62.2222222 58.6011166,62.2222222 Z" id="Path" fill-rule="nonzero"></path>
                    </g>
                </g>
            </g>
        </g>
    </g>
</svg>