<?xml version="1.0" encoding="UTF-8"?>
<svg width="70px" height="60px" viewBox="0 0 70 60" version="1.1" xmlns="http://www.w3.org/2000/svg" xmlns:xlink="http://www.w3.org/1999/xlink">
    <!-- Generator: Sketch 59.1 (86144) - https://sketch.com -->
    <title>ICONS/Brochure</title>
    <desc>Created with Sketch.</desc>
    <g id="MODELS" stroke="none" stroke-width="1" fill="none" fill-rule="evenodd" opacity="0.5">
        <g id="Models-Main" transform="translate(-684.000000, -1359.000000)" fill="#1F2225">
            <g id="FullLine" transform="translate(589.000000, 1354.000000)">
                <g id="ICONS/Brochure-LIGHT" transform="translate(95.000000, 0.000000)">
                    <g id="noun_Book_1405604" transform="translate(0.000000, 5.555556)">
                        <g id="Group" fill-rule="nonzero">
                            <rect id="Rectangle" x="0.175150992" y="5.88888889" width="33.4206212" height="52.8037037"></rect>
                            <path d="M66.1738568,53.1962963 C66.1738568,53.5888889 65.9866264,53.9814815 65.7057808,54.2759259 C65.4249353,54.5703704 65.0504745,54.6685185 64.6760138,54.6685185 C53.7230371,54.1777778 45.578516,56.6314815 40.8041415,58.7907407 L69.824849,58.7907407 L69.824849,5.88888889 L66.1738568,5.88888889 L66.1738568,53.1962963 Z" id="Path"></path>
                            <path d="M63.3654012,51.6259259 L63.3654012,0.392592593 C59.3399482,0.196296296 46.5146678,-1.66533454e-15 36.4042278,5.3 L36.4042278,57.612963 C40.4296808,55.3555556 49.6039689,51.3314815 63.3654012,51.6259259 Z" id="Path"></path>
                        </g>
                    </g>
                </g>
            </g>
        </g>
    </g>
</svg>