<?xml version="1.0" encoding="UTF-8"?>
<svg width="125px" height="35px" viewBox="0 0 125 35" version="1.1" xmlns="http://www.w3.org/2000/svg" xmlns:xlink="http://www.w3.org/1999/xlink">
    <!-- Generator: Sketch 59.1 (86144) - https://sketch.com -->
    <title>INTREPIDLOGO-white</title>
    <desc>Created with Sketch.</desc>
    <defs>
        <polygon id="path-1" points="0.133459474 0.130382231 88.8092745 0.130382231 88.8092745 9.53243802 0.133459474 9.53243802"></polygon>
        <polygon id="path-3" points="0.107207714 0.0366387279 18.9982206 0.0366387279 18.9982206 5.28977273 0.107207714 5.28977273"></polygon>
        <polygon id="path-5" points="0.0119577708 0.0266639324 117.578158 0.0266639324 117.578158 5.26237374 0.0119577708 5.26237374"></polygon>
    </defs>
    <g id="Symbols" stroke="none" stroke-width="1" fill="none" fill-rule="evenodd">
        <g id="NAVBAR/Main" transform="translate(-33.000000, -27.000000)">
            <g id="NAVBAR">
                <g id="LEFTMENU" transform="translate(33.000000, 27.000000)">
                    <g id="LOGO/White">
                        <g id="Intrepid-Powerboats-Logo--WHITE">
                            <path d="M7.36112475,6.57678393 L13.9920178,6.57678393 L8.74933963,24.3939394 L2.11864407,24.3939394 L7.36112475,6.57678393 Z M9.25933239,0 L15.8898305,0 L14.3699218,5.29275823 L7.73922623,5.29275823 L9.25933239,0 L9.25933239,0 Z" id="Fill-1" fill="#1f2225"></path>
                            <path d="M16.9987391,6.81852312 L23.5356642,6.81852312 L22.8827166,8.96318266 L22.9582193,8.96318266 C24.3458587,7.24111137 26.3407413,6.36363636 28.6696479,6.36363636 C31.6372069,6.36363636 33.6598745,7.37107901 32.5132399,11.1395605 L28.4815958,24.3939394 L21.720176,24.3939394 L25.2480659,12.7958743 C25.6926259,11.3343186 25.4294738,10.7169722 24.2274704,10.7169722 C23.0256684,10.7169722 22.3870161,11.3343186 21.9422547,12.7958743 L18.4141635,24.3939394 L11.6525424,24.3939394 L16.9987391,6.81852312" id="Fill-2" fill="#1f2225"></path>
                            <polyline id="Fill-3" fill="#1f2225" points="36.8471313 5.27910559 16.9491525 5.27910559 18.4904039 0 95.3389831 0 93.7979303 5.27910559 43.7419315 5.27910559 37.1314591 27.5757576 30.2362616 27.5757576 36.8471313 5.27910559"></polyline>
                            <path d="M46.4239407,6.81852312 L52.6721436,6.81852312 L51.8597714,9.61244067 L51.9311739,9.61244067 C53.2633797,7.50104666 55.3178866,6.36363636 57.2209277,6.36363636 L58.2627119,6.36363636 L56.6751121,11.8213104 C56.1289116,11.7240281 55.6358299,11.6915362 55.0967504,11.6915362 C52.7989745,11.6915362 51.2342775,12.503834 50.5635556,14.809986 L47.7773171,24.3939394 L41.3135593,24.3939394 L46.4239407,6.81852312" id="Fill-4" fill="#1f2225"></path>
                            <path d="M62.603652,16.9323675 L61.884847,19.3142869 C61.297715,21.2603699 62.0691107,21.7639187 63.0306571,21.7639187 C64.2616328,21.7639187 65.1951178,21.0927867 65.9437503,18.6099977 L72.1747674,18.6099977 C70.7726758,23.0049136 67.6872891,25.4545455 61.9562762,25.4545455 C55.2633243,25.4545455 53.8987133,22.8371306 55.9833067,15.9258692 C58.0777118,8.98085143 61.4827636,6.36363636 67.7137807,6.36363636 C73.2528768,6.36363636 75.4130203,8.51145851 73.4296836,15.0867545 L72.8733604,16.9323675 L62.603652,16.9323675 Z M67.6458837,12.8392612 C68.2226154,10.9267348 68.0240266,10.0546626 66.562476,10.0546626 C65.1395835,10.0546626 64.4148915,10.9267348 63.8375712,12.8392612 L63.5952222,13.6442201 L67.4025536,13.6442201 L67.6458837,12.8392612 L67.6458837,12.8392612 Z" id="Fill-5" fill="#1f2225"></path>
                            <path d="M77.6112084,6.82694565 L84.1499497,6.82694565 L83.4185887,9.27566919 L83.4933161,9.27566919 C84.913538,7.29045192 86.7688301,6.36363636 88.9862777,6.36363636 C93.5337676,6.36363636 94.1249392,9.53962941 92.1473844,16.1579396 C90.1009435,23.0071164 86.9682372,25.1910918 83.2105205,25.1910918 C81.2941978,25.1910918 79.83772,24.5290244 79.7047819,22.7090777 L79.6304574,22.7090777 L77.7391109,28.6363636 L70.9745763,28.6363636 L77.6112084,6.82694565 Z M82.0920277,20.757151 C83.6707683,20.757151 84.3449255,19.6317743 85.5020912,15.7608173 C86.6487829,11.9227569 86.645963,10.7975772 85.068431,10.7975772 C83.5275577,10.7975772 82.8527962,11.9227569 81.7057016,15.7608173 C80.549543,19.6317743 80.5513558,20.757151 82.0920277,20.757151 L82.0920277,20.757151 Z" id="Fill-6" fill="#1f2225"></path>
                            <path d="M97.4037422,6.57678393 L104.034445,6.57678393 L98.7917198,24.3939394 L92.1610169,24.3939394 L97.4037422,6.57678393 Z M99.3011056,0 L105.932203,0 L104.411943,5.29275823 L97.7812405,5.29275823 L99.3011056,0 L99.3011056,0 Z" id="Fill-7" fill="#1f2225"></path>
                            <path d="M118.361757,1.06060606 L125,1.06060606 L118.072957,24.9853545 L111.655515,24.9853545 L112.37366,22.5055447 L112.299532,22.5055447 C110.906929,24.5163631 109.270001,25.4545455 106.910185,25.4545455 C102.447132,25.4545455 101.866568,22.2374356 103.806527,15.5361042 C105.786416,8.70051881 108.889284,6.38807773 112.577855,6.38807773 C114.458908,6.38807773 115.886896,7.05835051 116.017755,8.90160065 L116.091487,8.90160065 L118.361757,1.06060606 Z M110.754325,20.9643163 C112.267114,20.9643163 112.928724,19.8246531 114.053877,15.9376694 C115.189309,12.0177706 115.186937,10.8783069 113.675136,10.8783069 C112.126569,10.8783069 111.464761,12.0177706 110.329329,15.9376694 C109.203979,19.8246531 109.205955,20.9643163 110.754325,20.9643163 L110.754325,20.9643163 Z" id="Fill-8" fill="#1f2225"></path>
                            <g id="Group-12" transform="translate(31.779661, 25.454545)">
                                <mask id="mask-2" fill="white">
                                    <use xlink:href="#path-1"></use>
                                </mask>
                                <g id="Clip-10"></g>
                                <path d="M87.3211028,0.130382231 C88.1309284,0.130382231 88.8092745,0.757128099 88.8092745,1.57782025 C88.8092745,2.41434917 88.1309284,3.0408781 87.3211028,3.0408781 C86.5070875,3.0408781 85.823554,2.41434917 85.823554,1.57782025 C85.823554,0.757128099 86.5070875,0.130382231 87.3211028,0.130382231 Z M87.3211028,2.82653926 L87.3211028,2.82653926 C86.6259976,2.82653926 86.0940944,2.29025826 86.0940944,1.57782025 C86.0940944,0.881219008 86.6259976,0.344721074 87.3211028,0.344721074 C88.0078285,0.344721074 88.5405298,0.881219008 88.5405298,1.57782025 C88.5405298,2.29025826 88.0078285,2.82653926 87.3211028,2.82653926 Z M86.7413164,0.733915289 L87.4118815,0.733915289 C87.8250741,0.733915289 88.0197993,0.893150826 88.0197993,1.2198657 C88.0197993,1.52748967 87.8214829,1.65548554 87.5635118,1.68303719 L88.058904,2.43344008 L87.7694098,2.43344008 L87.2969617,1.7021281 L87.0110588,1.7021281 L87.0110588,2.43344008 L86.7413164,2.43344008 L86.7413164,0.733915289 Z M87.0110588,1.48844008 L87.29357,1.48844008 C87.5315896,1.48844008 87.7498575,1.47672521 87.7498575,1.20836777 C87.7498575,0.982964876 87.551142,0.947386364 87.3687866,0.947386364 L87.0110588,0.947386364 L87.0110588,1.48844008 L87.0110588,1.48844008 Z" id="Fill-9" fill="#1f2225" mask="url(#mask-2)"></path>
                                <path d="M4.19138101,9.54198347 C1.61965114,9.60815083 -0.289893213,8.68571281 0.214676598,7.02480372 C0.712861975,5.38493802 3.01125827,4.38244835 5.57819982,4.37481554 C8.06653302,4.36769628 9.79312343,5.32614669 9.36237364,6.87815083 C8.93282093,8.46660124 6.72420575,9.47646694 4.19138101,9.54198347 Z M5.19293912,5.61164256 C4.0088261,5.61164256 3.21575967,6.34338843 3.03899065,6.99508264 C2.85962795,7.65436983 3.2720225,8.35639463 4.45174622,8.32732438 C5.61810253,8.29760331 6.34173824,7.58104339 6.51371893,6.94431818 C6.68809379,6.29978306 6.33714943,5.61164256 5.19293912,5.61164256 L5.19293912,5.61164256 Z" id="Fill-11" fill="#1f2225" mask="url(#mask-2)"></path>
                            </g>
                            <polyline id="Fill-13" fill="#1f2225" points="50.4617622 35 47.6715402 35 47.5962929 32.0628393 47.492828 32.0628393 45.7337281 35 42.9435062 35 42.3728814 29.6969697 45.0598344 29.6969697 45.1284191 32.8891878 45.227377 32.8564821 47.0752451 29.6969697 49.4131999 29.6969697 49.516077 32.9047172 49.5936757 32.9047172 51.4027444 29.6969697 54.0254237 29.6969697 50.4617622 35"></polyline>
                            <polyline id="Fill-14" fill="#1f2225" points="54.0254237 35 55.5225283 29.6969697 62.5 29.6969697 62.1415025 30.9673158 57.8904938 30.9673158 57.6864501 31.6896649 61.2916143 31.6896649 60.9442892 32.9200112 57.339321 32.9200112 57.1105803 33.7301245 61.5297633 33.7301245 61.1710698 35 54.0254237 35"></polyline>
                            <path d="M68.1226209,35 C68.1226209,35 68.1084356,34.8176959 68.1167799,34.6988223 C68.1320083,34.3741517 68.3372789,33.8749297 68.3372789,33.8749297 C68.4169673,33.5655295 68.3558451,33.2641168 67.8457977,33.1769585 L65.9343193,33.1769585 L65.3881826,34.9917775 L62.5,34.9917775 L64.0933506,29.6969697 L70.157804,29.6969697 C71.4785035,29.6969697 72.1854772,30.3632256 72.0064913,31.1396627 C71.8836209,31.6865751 71.2696865,32.2179823 70.3365814,32.4399893 C70.2950683,32.48674 70.257936,32.519395 70.2460454,32.5588629 C71.0441809,32.6937116 71.3510438,33.1374906 71.2375609,33.6049974 L71.0135155,34.5322583 C70.9828501,34.6356266 70.9281947,34.7700055 71.1057204,34.8176959 C71.1566208,34.833436 71.1979253,34.833436 71.2254616,34.833436 L71.1776903,34.9917775 L68.1226209,35 Z M66.585386,31.0125666 L66.2924999,31.9879878 L68.093833,31.9879878 C68.9466239,31.9879878 69.1704607,31.0125666 68.5106325,31.0125666 L66.585386,31.0125666 L66.585386,31.0125666 Z" id="Fill-15" fill="#1f2225"></path>
                            <g id="Group-19" transform="translate(73.093220, 29.696970)">
                                <mask id="mask-4" fill="white">
                                    <use xlink:href="#path-3"></use>
                                </mask>
                                <g id="Clip-17"></g>
                                <path d="M6.91343826,4.86707702 C6.31630491,5.06130051 5.66157904,5.15034722 5.04557247,5.15034722 L0.107207714,5.15034722 L1.59371757,0.170359848 L6.69902283,0.170359848 C7.88239364,0.200631313 8.84006399,0.602777778 8.75192407,1.32619949 C8.6546394,1.78093434 8.19214805,2.21335227 7.44305604,2.48933081 C8.22717053,2.74299242 8.5219431,3.25738636 8.34527413,3.76404672 C8.2032385,4.19602273 7.64638101,4.64390783 6.91343826,4.86707702 Z M5.66916724,1.34078283 L3.96357229,1.34078283 L3.71218869,2.18374369 L5.07145019,2.18374369 C5.52071083,2.18374369 6.05791681,1.93030303 6.10247319,1.78093434 C6.17582584,1.53500631 6.02873141,1.34122475 5.66916724,1.34122475 L5.66916724,1.34078283 Z M4.86656866,3.13011364 L3.42967399,3.13011364 L3.15377465,4.05482955 L4.87260031,4.05482955 C5.28314165,4.05482955 5.56818575,3.83099747 5.67753373,3.59236111 C5.7938862,3.33162879 5.50767468,3.13011364 4.86656866,3.13011364 L4.86656866,3.13011364 Z" id="Fill-16" fill="#1f2225" mask="url(#mask-4)"></path>
                                <path d="M13.8916681,5.29949495 C11.3830854,5.36688763 9.52105673,4.42736742 10.0127335,2.73570076 C10.4987677,1.06546717 12.7405958,0.0444128788 15.2437305,0.0366387279 C17.6702049,0.0293876263 19.3543973,1.00558712 18.9337383,2.58633207 C18.5154142,4.20419823 16.3609478,5.23276515 13.8916681,5.29949495 Z M14.8678226,1.29636995 C13.7134426,1.29636995 12.9392511,2.04166667 12.7672518,2.70542929 C12.5927231,3.37692551 12.9945088,4.09195076 14.1455811,4.06234217 C15.282839,4.03207071 15.9881529,3.30224116 16.1562608,2.65372475 C16.3261199,1.99725379 15.9836778,1.29636995 14.8678226,1.29636995 L14.8678226,1.29636995 Z" id="Fill-18" fill="#1f2225" mask="url(#mask-4)"></path>
                            </g>
                            <path d="M97.6367698,35 L97.5208581,34.3334153 L94.5360782,34.3334153 L94.0030519,35 L91.1016949,35 L95.9632809,29.6969697 L98.9480607,29.6969697 L100.635593,35 L97.6367698,35 Z M96.9861549,31.4360192 L96.8752737,31.4360192 L95.4084556,33.2301272 L97.3150256,33.2301272 L96.9861549,31.4360192 L96.9861549,31.4360192 Z" id="Fill-20" fill="#1f2225"></path>
                            <polyline id="Fill-21" fill="#1f2225" points="106.124794 31.0706094 104.974838 35 102.083091 35 103.232641 31.0706094 100.635593 31.0706094 101.03692 29.6969697 109.110169 29.6969697 108.708843 31.0706094 106.124794 31.0706094"></polyline>
                            <g id="Group-25" transform="translate(0.000000, 29.696970)">
                                <mask id="mask-6" fill="white">
                                    <use xlink:href="#path-5"></use>
                                </mask>
                                <g id="Clip-23"></g>
                                <path d="M113.516314,5.26237374 L112.136586,5.26237374 C110.82163,5.22481061 109.721515,4.52436869 109.576826,4.353125 C109.396264,4.12951389 109.302794,3.87585227 109.327706,3.62285354 L112.047301,3.62285354 C112.147747,4.15160985 113.137651,4.18143939 113.971506,4.03207071 C114.239161,3.92799874 114.485292,3.72692551 114.348574,3.57026515 C114.282408,3.48828914 114.146887,3.4584596 114.022725,3.43614268 C113.196443,3.25738636 112.25995,3.1822601 111.480902,2.98118687 C110.725768,2.74299242 109.990166,2.39984217 110.066895,1.84832702 C110.127481,1.34851641 110.633295,0.811805556 111.3681,0.51395202 C112.314358,0.125505051 113.467685,0.00640782828 114.538105,0.0293876263 C115.606333,0.0587752525 116.5783,0.230460859 117.177982,0.677462121 C117.46178,0.908806818 117.61743,1.25924874 117.569599,1.58737374 L114.889664,1.58737374 C114.954235,1.28863636 114.350169,1.11739268 113.72976,1.12468434 C113.412082,1.13241793 113.111543,1.21439394 112.971836,1.37061237 C112.76975,1.60195707 112.865213,1.63222854 113.006913,1.72878788 L115.858044,2.2427399 C117.101054,2.51938131 117.536915,3.24236111 117.00878,3.98036616 C116.332169,4.73339646 114.92753,5.20293561 113.516314,5.26237374" id="Fill-22" fill="#1f2225" mask="url(#mask-6)"></path>
                                <path d="M28.6189313,1.66183712 C28.5067276,1.51268939 28.2187446,1.42320076 27.8247361,1.42320076 L26.3794402,1.42320076 L26.0719262,2.42967172 L27.6880189,2.42967172 C28.016459,2.42967172 28.2912884,2.30328283 28.4728472,2.13888889 C28.6498222,1.98996212 28.7335266,1.80347222 28.6189313,1.66183712 Z M0.291371014,2.46281566 L23.3025065,2.46281566 L24.0032318,0.170359848 L29.008954,0.170359848 C30.2043324,0.170359848 30.9903566,0.565656566 31.3146115,1.09529672 C31.5657246,1.52042298 31.3747989,2.10176768 30.9622558,2.54876894 C30.5827959,2.97433712 29.8444035,3.36919192 29.0438308,3.49558081 C27.957268,3.69709596 26.737974,3.68936237 25.7028296,3.63721591 L25.2400639,5.15034722 L22.4808083,5.15034722 L22.9352036,3.66439394 L0,3.66439394 L0.291371014,2.46281566 L0.291371014,2.46281566 Z" id="Fill-24" fill="#1f2225" mask="url(#mask-6)"></path>
                            </g>
                        </g>
                    </g>
                </g>
            </g>
        </g>
    </g>
</svg>
