<?xml version="1.0" encoding="utf-8"?>
<!-- Generator: Adobe Illustrator 24.0.1, SVG Export Plug-In . SVG Version: 6.00 Build 0)  -->
<svg version="1.1" id="Layer_1" xmlns="http://www.w3.org/2000/svg" xmlns:xlink="http://www.w3.org/1999/xlink" x="0px" y="0px"
	 viewBox="0 0 183.6 125" style="enable-background:new 0 0 183.6 125;" xml:space="preserve">
<style type="text/css">
	.st0{fill:#DDDDDD;}
	.st1{font-family:'Montserrat-SemiBold';}
	.st2{font-size:8px;}
	.st3{letter-spacing:1;}
	.st4{fill:#FFFFFF;}
	.st5{fill:#6D6D6D;}
</style>
<text transform="matrix(1 0 0 1 32.5348 99.5252)"><tspan x="0" y="0" class="st0 st1 st2 st3">FOR </tspan><tspan x="24.2" y="0" class="st4 st1 st2 st3">BEST EXPERIENCE</tspan><tspan x="-7" y="9.6" class="st0 st1 st2 st3">ROTATE YOUR PHONE 90ยบ</tspan></text>
<path class="st5" d="M94.9,18.3c2.2-2.2,5.8-2.2,8,0l16.5,16.5c2.2,2.2,2.2,5.8,0,8L88.7,73.7c-2.2,2.2-5.8,2.2-8,0L64.1,57.1
	c-2.2-2.2-2.2-5.8,0-8L94.9,18.3z M95.4,22.4l-27,27l20,20l27-27L95.4,22.4z M74,64.6c1.1,1.1,2.8,1.1,3.9,0c1.1-1.1,1.1-2.8,0-3.9
	c-1.1-1.1-2.8-1.1-3.9,0C72.9,61.8,72.9,63.6,74,64.6z M61.4,30.9H59c-0.8,0-1.2,0.4-0.8,0.8l7.2,7.2l7.2-7.2c0.4-0.4,0-0.8-0.8-0.8
	h-2.4c-1.2-4.7,3.8-8.2,10.8-7.6c1.3,0.1,1.3-0.5,0.8-0.8C72.6,17.3,61.4,20.5,61.4,30.9z M122.3,60.7h2.4c0.8,0,1.2-0.4,0.8-0.8
	l-7.2-7.2l-7.2,7.2c-0.4,0.4,0,0.8,0.8,0.8h2.4c1.2,4.7-3.8,8.2-10.8,7.6c-1.3-0.1-1.3,0.5-0.8,0.8C111,74.4,122.3,71.2,122.3,60.7z
	"/>
</svg>
