<?xml version="1.0" encoding="UTF-8"?>
<svg width="70px" height="69px" viewBox="0 0 70 69" version="1.1" xmlns="http://www.w3.org/2000/svg" xmlns:xlink="http://www.w3.org/1999/xlink">
    <!-- Generator: Sketch 59.1 (86144) - https://sketch.com -->
    <title>360VIEW</title>
    <desc>Created with Sketch.</desc>
    <g id="Symbols" stroke="none" stroke-width="1" fill="none" fill-rule="evenodd">
        <g id="ModelHeader/STATE1-OVERVIEW" transform="translate(-1161.000000, -410.000000)" fill="#FFFFFF" fill-rule="nonzero">
            <g id="ModelHeader-STATE1-OVERVIEW">
                <g id="360VIEW" transform="translate(1134.000000, 398.000000)">
                    <g id="ICONS/GearIcon" transform="translate(27.000000, 12.000000)">
                        <path d="M24.7916667,0.116402116 L12.46875,0.116402116 C12.46875,2.36507937 12.46875,4.83862434 12.46875,7.53703704 L12.46875,23.2028219 C12.46875,25.9512052 12.46875,28.4247501 12.46875,30.6234568 L54.9791667,30.6234568 C54.9791667,28.3747795 54.9791667,25.9012346 54.9791667,23.2028219 L54.9791667,7.53703704 C54.9791667,4.78865373 54.9791667,2.31510876 54.9791667,0.116402116 L42.65625,0.116402116 L24.7916667,0.116402116 Z M33.6145833,27.1005291 C27.34375,27.1005291 22.2395833,21.8536155 22.2395833,15.4074074 C22.2395833,8.96119929 27.34375,3.71428571 33.6145833,3.71428571 C39.8854167,3.71428571 44.9895833,8.96119929 44.9895833,15.4074074 C44.9895833,21.8536155 39.8854167,27.1005291 33.6145833,27.1005291 Z" id="Shape"></path>
                        <path d="M33.6145833,7.83686067 C29.6041667,7.83686067 26.3229167,11.2098765 26.3229167,15.3324515 C26.3229167,19.4550265 29.6041667,22.8280423 33.6145833,22.8280423 C37.625,22.8280423 40.90625,19.4550265 40.90625,15.3324515 C40.90625,11.2098765 37.6979167,7.83686067 33.6145833,7.83686067 Z" id="Path"></path>
                        <path d="M65.9895833,26.2760141 C61.6912503,36.6699001 51.1183336,41.866843 34.2708333,41.866843 C30.84375,41.866843 27.4166667,41.5670194 24.2083333,41.042328 L27.34375,39.2433862 L22.8229167,38.1190476 C21,37.6693122 19.25,37.2195767 17.5729167,36.6948854 C13.5625,35.5705467 9.69791667,34.3712522 6.05208333,33.0970018 L0.364583333,31.1481481 L4.01041667,36.0202822 C4.52083333,36.6948854 4.95833333,37.2195767 5.32291667,37.7442681 C7.51041667,40.4426808 9.98958333,43.0661376 12.6145833,45.4647266 L13.4166667,46.2142857 L14.4375,45.7645503 C16.0416667,45.0899471 17.5729167,44.4153439 19.03125,43.6657848 C23.6979167,44.8650794 28.875,45.4647266 34.125,45.4647266 C52.7689752,45.4647266 64.5571696,39.0185185 69.4895833,26.1261023 L65.9895833,26.2760141 Z" id="Path"></path>
                    </g>
                    <path d="M43.197664,73.775 L45.567664,71.075 L45.567664,69.5 L38.217664,69.5 L38.217664,71.45 L42.687664,71.45 L40.527664,73.895 L40.527664,75.5 L41.637664,75.5 C43.017664,75.5 43.602664,75.995 43.602664,76.79 C43.602664,77.645 42.852664,78.14 41.637664,78.14 C40.542664,78.14 39.432664,77.795 38.637664,77.195 L37.692664,79.055 C38.712664,79.775 40.227664,80.18 41.697664,80.18 C44.682664,80.18 46.047664,78.56 46.047664,76.79 C46.047664,75.245 45.087664,74.075 43.197664,73.775 Z M55.852582,73.415 C54.757582,73.415 53.872582,73.73 53.257582,74.345 C53.332582,72.335 54.457582,71.3 56.212582,71.3 C56.917582,71.3 57.592582,71.435 58.177582,71.825 L59.077582,70.04 C58.342582,69.575 57.262582,69.32 56.152582,69.32 C52.987582,69.32 50.797582,71.345 50.797582,74.975 C50.797582,78.365 52.597582,80.18 55.492582,80.18 C57.712582,80.18 59.467582,78.83 59.467582,76.685 C59.467582,74.705 57.877582,73.415 55.852582,73.415 Z M55.357582,78.365 C54.187582,78.365 53.512582,77.705 53.512582,76.805 C53.512582,75.89 54.262582,75.23 55.327582,75.23 C56.407582,75.23 57.112582,75.845 57.112582,76.805 C57.112582,77.765 56.392582,78.365 55.357582,78.365 Z M68.4775,80.18 C71.0725,80.18 72.9775,78.215 72.9775,74.75 C72.9775,71.285 71.0725,69.32 68.4775,69.32 C65.8975,69.32 63.9775,71.285 63.9775,74.75 C63.9775,78.215 65.8975,80.18 68.4775,80.18 Z M68.4775,78.125 C67.2775,78.125 66.4375,77.135 66.4375,74.75 C66.4375,72.365 67.2775,71.375 68.4775,71.375 C69.6925,71.375 70.5325,72.365 70.5325,74.75 C70.5325,77.135 69.6925,78.125 68.4775,78.125 Z M80.472418,73.715 C82.122418,73.715 83.307418,72.68 83.307418,71.225 C83.307418,69.785 82.122418,68.75 80.472418,68.75 C78.822418,68.75 77.622418,69.785 77.622418,71.225 C77.622418,72.68 78.822418,73.715 80.472418,73.715 Z M80.472418,72.47 C79.737418,72.47 79.212418,71.99 79.212418,71.225 C79.212418,70.46 79.737418,69.995 80.472418,69.995 C81.192418,69.995 81.717418,70.46 81.717418,71.225 C81.717418,71.99 81.192418,72.47 80.472418,72.47 Z" id="360ยบ"></path>
                </g>
            </g>
        </g>
    </g>
</svg>