<?xml version="1.0" encoding="UTF-8"?>
<svg width="70px" height="70px" viewBox="0 0 70 70" version="1.1" xmlns="http://www.w3.org/2000/svg" xmlns:xlink="http://www.w3.org/1999/xlink">
    <!-- Generator: Sketch 59.1 (86144) - https://sketch.com -->
    <title>ICONS/Brochure</title>
    <desc>Created with Sketch.</desc>
    <g id="MODELS" stroke="none" stroke-width="1" fill="none" fill-rule="evenodd" opacity="0.5">
        <g id="Models-Main" transform="translate(-1001.000000, -1354.000000)" fill="#1F2225">
            <g id="HOW-MADE" transform="translate(911.000000, 1354.000000)">
                <g id="ICONS/GearIcon-LIGHT" transform="translate(90.000000, 0.000000)">
                    <g id="GearIcon">
                        <path d="M58.0222266,41.5839278 L58.0222266,31.0850722 L53.3431895,31.0850722 C52.9171557,29.5928201 52.3148071,28.1548722 51.5484798,26.8006778 L54.8622573,23.5392278 L47.3168161,16.11355 L44.0091129,19.4159611 C42.6367499,18.6557268 41.1749891,18.0636687 39.6564395,17.6529944 L39.6564395,13.0110667 L28.9885073,13.0110667 L28.9885073,17.6155556 C27.4720812,18.0348991 26.0108469,18.6277783 24.6347331,19.38205 L21.3209556,16.1206 L13.7826613,23.5392278 L17.0903702,26.7947056 C16.3160167,28.1472423 15.7130974,29.5881149 15.2951073,31.0850722 L10.6227145,31.0850722 L10.6227145,41.5839278 L15.3017742,41.5839278 C15.7278066,43.0762672 16.3301547,44.5143053 17.0964839,45.8685944 L13.7826613,49.1297722 L21.3209387,56.5483944 L24.6286532,53.2931833 C26.0031457,54.0551537 27.4673361,54.6484976 28.9884903,55.05995 L28.9884903,59.6582056 L39.6564339,59.6582056 L39.6564339,55.0534444 C41.1728334,54.6341464 42.6340625,54.0413607 44.0102081,53.2872222 L47.3239855,56.5484 L54.8622573,49.1297722 L51.5545484,45.8742944 C52.3289491,44.5217803 52.931871,43.0809018 53.3498113,41.5839278 L58.0222266,41.5839278 Z M34.3224677,49.2328556 C27.0840255,49.2328556 21.2162605,43.4579241 21.2162605,36.3343778 C21.2162605,29.2108315 27.0843191,23.4361889 34.3227613,23.4361889 C41.5612035,23.4361889 47.4290024,29.211087 47.4290024,36.3346333 C47.4207799,43.4548765 41.5575537,49.2249138 34.3224677,49.2328556 Z" id="Shape" fill-rule="nonzero"></path>
                        <path d="M3.07782661,47.2035167 C2.45859457,47.2035167 1.91193359,46.8055541 1.72967742,46.2231444 C-1.1604139,36.9661707 0.149773446,26.9320646 5.32413,18.6949298 C10.4984866,10.4577951 19.0334889,4.81919815 28.7396065,3.22563889 C29.5086881,3.10099129 30.2348286,3.61351208 30.3614867,4.37038611 C30.4881447,5.12726014 29.9673575,5.84187462 29.1982758,5.96652222 C20.2964698,7.42979918 12.469259,12.6022407 7.72400018,20.1573288 C2.97874133,27.7124169 1.77704589,36.9152043 4.42709919,45.4055556 C4.55865646,45.8269448 4.47927107,46.2847687 4.21315839,46.6393748 C3.94704571,46.9939809 3.52576678,47.2035167 3.07782661,47.2035167 L3.07782661,47.2035167 Z" id="Path" fill-rule="nonzero"></path>
                        <path d="M34.3224677,69.8912323 C24.250811,69.8988989 14.692635,65.5173365 8.21828226,57.9248056 C7.71812971,57.3376912 7.79553046,56.4628864 8.39126733,55.9696801 C8.98700421,55.4764738 9.87604845,55.5511657 10.3782169,56.1366111 C16.2763682,63.0431144 24.9563892,67.0554364 34.1234874,67.1128139 C43.2905856,67.1701913 52.0217624,63.2668471 58.0087008,56.4347333 C58.5179207,55.8540427 59.4090604,55.7895518 59.9991169,56.2906889 C60.5891735,56.7918259 60.6547046,57.6688205 60.1454847,58.2495111 C53.6688406,65.6426242 44.241259,69.8928317 34.3224677,69.8912323 Z" id="Path" fill-rule="nonzero"></path>
                        <path d="M64.854029,49.2347556 C64.3894724,49.2347556 63.9548241,49.0091577 63.691644,48.6324166 C63.428464,48.2556756 63.370432,47.7756371 63.5364484,47.3486444 C66.8754199,38.7477443 66.1304791,29.1279605 61.5056799,21.1243397 C56.8808808,13.1207189 48.8610313,7.57226414 39.642925,5.99880556 C39.1450353,5.91603529 38.7300274,5.57776826 38.5546562,5.1117732 C38.379285,4.64577813 38.4702801,4.12308076 38.7932713,3.74111202 C39.1162625,3.35914329 39.6220203,3.17612186 40.1195121,3.26117778 C50.1705337,4.9749833 58.9155708,11.0236939 63.9585165,19.7499859 C69.0014621,28.4762778 69.8135062,38.9651002 66.1721516,48.3425556 C65.9629127,48.8798895 65.4387491,49.2347556 64.854029,49.2347556 Z" id="Path" fill-rule="nonzero"></path>
                        <path d="M29.1084161,9.08339013 C28.5376681,9.08339013 28.0231574,8.74491397 27.8047531,8.22597668 C27.5863488,7.70703938 27.7070515,7.10972691 28.1105887,6.71251111 L30.1911411,4.66473333 L27.9711137,2.47965556 C27.4200288,1.93731653 27.4200301,1.05801249 27.9711165,0.515675 C28.522203,-0.0266624878 29.4156893,-0.0266612442 29.9667742,0.515677778 L34.183004,4.66471111 L30.1062492,8.67648333 C29.8419388,8.9374303 29.4828054,9.08388102 29.1084161,9.08339013 Z" id="Path" fill-rule="nonzero"></path>
                        <path d="M63.3699669,51.6398111 L61.2023153,46.38265 C60.911324,45.6723947 61.2594624,44.8643642 61.9805267,44.5764184 C62.701591,44.2884726 63.5234238,44.6292933 63.8176113,45.3382722 L64.9240629,48.02165 L67.8337484,46.8598111 C68.5554594,46.5734387 69.3765227,46.9160511 69.6691128,47.6256699 C69.9617029,48.3352887 69.615385,49.1440766 68.894971,49.4335944 L63.3699669,51.6398111 Z" id="Path" fill-rule="nonzero"></path>
                        <path d="M6.92993226,60 C6.50345779,60 6.09979933,59.8104372 5.83161767,59.4840999 C5.563436,59.1577627 5.45945125,58.7296426 5.54868548,58.3192278 L6.80038145,52.5819222 L12.436996,53.7727778 C13.1983644,53.9344734 13.6826852,54.6726113 13.5191522,55.4220578 C13.3556193,56.1715043 12.6060664,56.6488842 11.8443669,56.4887056 L8.96748548,55.8810667 L8.30842419,58.9024444 C8.16877662,59.5420453 7.59468238,59.9991392 6.92993226,60 Z" id="Path" fill-rule="nonzero"></path>
                    </g>
                </g>
            </g>
        </g>
    </g>
</svg>